#!OML:ASF X:\für Bonn\!DataBase\2005_08_11_Bastian_Final\c3d\Bastian.ASF
:FULLY-SPECIFIED
:DEGREES
80
root 0.787303 16.1329 30.7506 715.984 0.52148 -6.56451
lowerback 16.8518 -2.29681 5.50717
upperback 5.79431 -2.0328 2.0186
thorax -3.35156 -0.99092 -0.585843
lowerneck -7.71923 -2.44458 0.759598
upperneck -6.55026 -3.18633 4.45557
head -0.682246 -1.62918 1.19281
rclavicle 2.6339e-015 2.26615e-014
rhumerus -41.5528 -1.82702 -84.6667
rradius 16.245
rwrist 6.92934
rhand -18.4731 10.1083
rfingers 7.12502
rthumb 7.81376 -19.7273
lclavicle 2.6339e-015 2.26615e-014
lhumerus -65.2715 45.2595 31.9209
lradius 22.977
lwrist 131.164
lhand -26.9502 6.03334
lfingers 7.12502
lthumb -0.37197 36.0128
rfemur -29.4046 -5.93732 25.36
rtibia 59.397
rfoot -23.0971 7.51323
rtoes -31.0169
lfemur -28.2439 4.93086 -12.9301
ltibia 57.789
lfoot -14.8212 -12.7114
ltoes -7.06031
81
root 0.763268 15.865 30.9343 715.851 0.543774 -6.65989
lowerback 16.8559 -2.26972 5.32452
upperback 5.94906 -2.03004 2.10519
thorax -3.18072 -0.986331 -0.39584
lowerneck -9.03327 -2.37734 0.745939
upperneck -6.83048 -3.10483 4.73654
head -0.554214 -1.57846 1.27111
rclavicle 2.63017e-014 -1.76918e-014
rhumerus -41.5307 -2.70818 -83.8909
rradius 15.2987
rwrist 8.26964
rhand -18.1464 9.96781
rfingers 7.12502
rthumb 8.12903 -19.8558
lclavicle 2.63017e-014 -1.76918e-014
lhumerus -65.9941 45.9554 30.7069
lradius 22.8815
lwrist 131.926
lhand -27.4007 5.70482
lfingers 7.12502
lthumb -0.80709 35.683
rfemur -29.839 -6.17319 25.6018
rtibia 62.2586
rfoot -26.3101 8.07827
rtoes -23.9162
lfemur -29.2129 4.58069 -12.7068
ltibia 61.5883
lfoot -18.4957 -12.9099
ltoes -6.30924
82
root 0.74021 15.6189 31.1167 715.701 0.544064 -6.75243
lowerback 16.8173 -2.22868 5.18021
upperback 6.13704 -2.00887 2.16332
thorax -2.95336 -0.971402 -0.2631
lowerneck -9.86458 -2.29863 0.831032
upperneck -7.94223 -2.97405 4.96581
head -0.768888 -1.52814 1.33503
rclavicle -5.71506e-016 7.05686e-015
rhumerus -41.4061 -3.73309 -83.0702
rradius 14.4207
rwrist 9.6686
rhand -17.8004 9.90575
rfingers 7.12502
rthumb 8.46292 -19.9047
lclavicle -5.71506e-016 7.05686e-015
lhumerus -66.2183 46.7508 29.9187
lradius 22.6853
lwrist 132.357
lhand -27.6833 5.22238
lfingers 7.12502
lthumb -1.08005 35.1994
rfemur -30.266 -6.32465 25.7995
rtibia 65.082
rfoot -29.3604 8.36523
rtoes -18.0365
lfemur -30.0637 4.20142 -12.4663
ltibia 65.193
lfoot -21.4543 -13.0866
ltoes -4.67254
83
root 0.717891 15.3956 31.2988 715.592 0.559376 -6.81448
lowerback 16.6817 -2.1754 5.05654
upperback 6.33802 -1.97795 2.16937
thorax -2.66346 -0.950315 -0.202014
lowerneck -10.9228 -2.24163 1.04535
upperneck -8.72122 -2.90559 5.13526
head -0.847771 -1.50357 1.35126
rclavicle -1.98785e-016 -4.96962e-015
rhumerus -41.0883 -4.8116 -82.3338
rradius 13.4795
rwrist 10.9898
rhand -17.5796 9.85594
rfingers 7.12502
rthumb 8.67602 -19.9458
lclavicle -1.98785e-016 -4.96962e-015
lhumerus -65.8218 47.5364 29.6993
lradius 22.4736
lwrist 132.75
lhand -27.8479 4.70934
lfingers 7.12502
lthumb -1.23906 34.6855
rfemur -30.6617 -6.40162 25.9399
rtibia 67.7113
rfoot -31.3402 8.63275
rtoes -13.2511
lfemur -30.8419 3.76798 -12.2419
ltibia 68.5114
lfoot -23.7572 -13.3204
ltoes -1.93163
84
root 0.694865 15.2065 31.4813 715.502 0.564469 -6.84671
lowerback 16.5861 -2.08577 4.87869
upperback 6.43987 -1.89877 2.20038
thorax -2.49633 -0.909727 -0.0897462
lowerneck -12.0121 -2.21204 1.21531
upperneck -9.11395 -2.89306 5.21369
head -0.801589 -1.49678 1.34029
rclavicle 1.01877e-014 -2.83268e-015
rhumerus -40.8388 -5.39369 -81.8665
rradius 12.728
rwrist 11.7607
rhand -17.2871 9.61976
rfingers 7.12502
rthumb 8.95835 -20.17
lclavicle 1.01877e-014 -2.83268e-015
lhumerus -65.17 48.2062 29.8183
lradius 22.2923
lwrist 133.506
lhand -27.6683 4.6803
lfingers 7.12502
lthumb -1.06553 34.6574
rfemur -30.9097 -6.45739 26.0532
rtibia 69.9778
rfoot -32.7548 8.82071
rtoes -9.82982
lfemur -31.4783 3.34323 -12.0355
ltibia 71.4158
lfoot -25.6968 -13.5544
ltoes -0.111899
85
root 0.671599 15.0601 31.6655 715.467 0.587828 -6.87473
lowerback 16.4673 -2.00894 4.69727
upperback 6.41201 -1.83183 2.23724
thorax -2.45548 -0.878892 0.0351105
lowerneck -12.9758 -2.20088 1.30009
upperneck -9.09709 -2.91298 5.28498
head -0.644664 -1.49527 1.3377
rclavicle -1.38155e-014 -1.63003e-014
rhumerus -40.7817 -5.74772 -81.4729
rradius 12.1931
rwrist 12.5164
rhand -16.9509 9.37606
rfingers 7.12502
rthumb 9.28269 -20.3996
lclavicle -1.38155e-014 -1.63003e-014
lhumerus -63.5088 48.2493 31.3818
lradius 22.1233
lwrist 135.021
lhand -27.1081 5.07584
lfingers 7.12502
lthumb -0.524462 35.0549
rfemur -31.0234 -6.49378 26.1705
rtibia 71.7479
rfoot -33.6391 8.8758
rtoes -6.79945
lfemur -31.946 2.90612 -11.8353
ltibia 73.7979
lfoot -27.3989 -13.7498
ltoes 1.15709
86
root 0.649195 14.9621 31.8523 715.459 0.59987 -6.87124
lowerback 16.3069 -1.92323 4.47655
upperback 6.2987 -1.75783 2.2746
thorax -2.48265 -0.846811 0.181786
lowerneck -13.9089 -2.19237 1.30287
upperneck -8.63195 -2.94577 5.39752
head -0.347212 -1.48603 1.35871
rclavicle 2.46741e-014 -4.96962e-016
rhumerus -40.8516 -5.40925 -81.5041
rradius 12.0105
rwrist 12.7765
rhand -16.6476 9.06219
rfingers 7.12502
rthumb 9.57537 -20.7002
lclavicle 2.46741e-014 -4.96962e-016
lhumerus -60.7012 47.6255 34.5084
lradius 22.022
lwrist 137.401
lhand -26.4887 5.50799
lfingers 7.12502
lthumb 0.0737707 35.4877
rfemur -30.9455 -6.49391 26.2551
rtibia 72.9791
rfoot -33.9996 8.75153
rtoes -4.05469
lfemur -32.1018 2.46511 -11.6773
ltibia 75.5473
lfoot -28.9137 -13.8485
ltoes 2.09178
87
root 0.625641 14.9084 32.0369 715.468 0.667105 -6.81136
lowerback 16.1538 -1.89557 4.1684
upperback 6.09987 -1.76871 2.30281
thorax -2.60495 -0.859247 0.3855
lowerneck -14.837 -2.16862 1.18155
upperneck -7.71517 -2.96229 5.5915
head 0.101626 -1.45194 1.42708
rclavicle -1.05853e-014 -7.55382e-015
rhumerus -41.0667 -4.60331 -81.7643
rradius 12.2001
rwrist 12.8987
rhand -16.3654 8.96569
rfingers 7.12502
rthumb 9.84759 -20.784
lclavicle -1.05853e-014 -7.55382e-015
lhumerus -56.9716 46.0616 39.0399
lradius 22.1481
lwrist 140.948
lhand -26.0131 5.62515
lfingers 7.12502
lthumb 0.533066 35.6042
rfemur -30.6391 -6.50846 26.277
rtibia 73.6835
rfoot -34.035 8.4724
rtoes -1.69609
lfemur -31.965 2.03905 -11.6
ltibia 76.6427
lfoot -30.149 -13.8683
ltoes 2.55735
